<svg xmlns="http://www.w3.org/2000/svg" fill="none" viewBox="0 0 60 60" height="60" width="60"><path fill="#000000" d="M29.990000000000002 3.21a27.465000000000003 27.465000000000003 0 0 0 -8.68 53.53c1.37 0.2375 1.805 -0.5675 1.805 -1.2925 0 -0.6575 0.015 -2.4775 0 -4.7749999999999995 -7.6425 1.655 -9.22 -3.62 -9.22 -3.62a7.2675 7.2675 0 0 0 -3.05 -4.0175c-2.4925 -1.705 0.1875 -1.6725 0.1875 -1.6725a5.7675 5.7675 0 0 1 4.2075000000000005 2.8275 5.85 5.85 0 0 0 7.9925 2.285 5.85 5.85 0 0 1 1.7425 -3.66c-6.0975 -0.6975 -12.509999999999998 -3.05 -12.509999999999998 -13.580000000000002a10.620000000000001 10.620000000000001 0 0 1 2.8299999999999996 -7.37 9.855 9.855 0 0 1 0.2675 -7.2675s2.31 -0.7374999999999999 7.55 2.82a26.005 26.005 0 0 1 13.7575 0c5.255 -3.5549999999999997 7.545 -2.82 7.545 -2.82 1.0125000000000002 2.3000000000000003 1.11 4.9 0.2725 7.2675a10.607500000000002 10.607500000000002 0 0 1 2.8249999999999997 7.375c0 10.5575 -6.422499999999999 12.875 -12.54 13.55a6.51 6.51 0 0 1 1.88 5.0649999999999995v7.6025c0 0.735 0.4425 1.5474999999999999 1.8375 1.28a27.465000000000003 27.465000000000003 0 0 0 -8.7 -53.5275Z" stroke-width="2.5"></path></svg>