<svg xmlns="http://www.w3.org/2000/svg" fill="none" viewBox="0 0 60 60" height="60" width="60"><path fill="#e2e2e2" fill-rule="evenodd" d="M12.5 2.5a10 10 0 0 0 -10 10v35a10 10 0 0 0 10 10h35a10 10 0 0 0 10 -10V12.5a10 10 0 0 0 -10 -10H12.5Zm3.0125 17.275a4.2625 4.2625 0 1 0 0 -8.525 4.2625 4.2625 0 0 0 0 8.525ZM19.7725 48.75V23.182499999999997H11.25V48.75h8.525Zm11.080000000000002 -25.567500000000003H23.182499999999997V48.75h7.67v-15.425c0.9875 -1.605 2.6925 -3.325 5.1125 -3.325 3.41 0 4.2625 3.41 4.2625 5.114999999999999V48.75H48.75v-13.635c0 -4.57 -1.9925000000000002 -11.9325 -9.375 -11.9325 -4.694999999999999 0 -7.3 1.7125000000000001 -8.525 3.3175V23.182499999999997Z" clip-rule="evenodd" stroke-width="2.5"></path></svg>