<svg xmlns="http://www.w3.org/2000/svg" fill="none" viewBox="0 0 60 60" height="60" width="60"><g id="location-pin-3--navigation-map-maps-pin-gps-location"><path id="Union" fill="#000" fill-rule="evenodd" d="M30 0c11.237142857142857 0 20.597142857142856 9.360000000000001 20.597142857142856 20.59285714285714 0 3.6685714285714286 -1.2599999999999998 7.285714285714286 -3.0214285714285714 10.559999999999999 -1.7699999999999998 3.2914285714285714 -4.109999999999999 6.359999999999999 -6.432857142857142 8.974285714285713a66.95571428571428 66.95571428571428 0 0 1 -6.518571428571428 6.385714285714285 39.27428571428571 39.27428571428571 0 0 1 -2.3400000000000003 1.8557142857142856 12.402857142857144 12.402857142857144 0 0 1 -0.8357142857142857 0.5571428571428572 4.542857142857143 4.542857142857143 0 0 1 -0.7457142857142857 0.3557142857142857 2.31 2.31 0 0 1 -1.7357142857142858 -0.12857142857142856 4.4957142857142856 4.4957142857142856 0 0 1 -0.42 -0.22714285714285712 12.44142857142857 12.44142857142857 0 0 1 -0.84 -0.5700000000000001 39.19285714285714 39.19285714285714 0 0 1 -2.335714285714286 -1.8642857142857143A67.90714285714286 67.90714285714286 0 0 1 18.857142857142858 40.08c-2.322857142857143 -2.6228571428571428 -4.662857142857143 -5.7 -6.428571428571429 -8.97857142857143 -1.7614285714285713 -3.2657142857142856 -3.0257142857142854 -6.87 -3.0257142857142854 -10.508571428571429C9.402857142857142 9.360000000000001 18.762857142857143 0 30 0Zm0 26.742857142857144a6.15 6.15 0 1 1 0 -12.3 6.15 6.15 0 0 1 0 12.3Zm13.285714285714286 16.782857142857143c0.7885714285714286 -0.8871428571428571 1.5771428571428572 -1.817142857142857 2.357142857142857 -2.7857142857142856h5.755714285714285c0.8571428571428572 0 1.6285714285714286 0.5142857142857142 1.9714285714285715 1.2985714285714285l6.415714285714286 14.978571428571428a2.142857142857143 2.142857142857143 0 0 1 -1.9714285714285715 2.9871428571428567H2.1857142857142855a2.142857142857143 2.142857142857143 0 0 1 -1.9714285714285715 -2.9871428571428567l6.42 -14.978571428571428a2.142857142857143 2.142857142857143 0 0 1 1.9714285714285715 -1.2985714285714285h5.807142857142857c0.7585714285714286 0.9428571428571428 1.5299999999999998 1.8557142857142856 2.3014285714285716 2.7257142857142855 2.837142857142857 3.197142857142857 5.7 5.897142857142857 7.928571428571429 7.804285714285714 1.1142857142857143 0.9557142857142857 2.087142857142857 1.7228571428571429 2.8328571428571427 2.262857142857143 0.36857142857142855 0.27 0.7071428571428572 0.49714285714285716 0.9942857142857143 0.6728571428571428a3.0385714285714283 3.0385714285714283 0 0 0 0.8099999999999999 0.3857142857142857 2.3400000000000003 2.3400000000000003 0 0 0 1.7742857142857142 -0.12857142857142856c0.17142857142857143 -0.07714285714285714 0.32999999999999996 -0.17142857142857143 0.4714285714285714 -0.25285714285714284a14.314285714285713 14.314285714285713 0 0 0 0.99 -0.6642857142857143c0.7457142857142857 -0.54 1.7142857142857144 -1.3028571428571427 2.8328571428571427 -2.25 2.2285714285714286 -1.8942857142857144 5.1 -4.581428571428571 7.932857142857142 -7.77Z" clip-rule="evenodd" stroke-width="4.285714285714286"></path></g></svg>