<svg xmlns="http://www.w3.org/2000/svg" fill="none" viewBox="0 0 60 60" height="60" width="60"><g id="mail-send-envelope--envelope-email-message-unopened-sealed-close"><path id="Subtract" fill="#000" fill-rule="evenodd" d="M0 11.785714285714285a6.428571428571429 6.428571428571429 0 0 1 6.428571428571429 -6.428571428571429h47.14285714285714a6.428571428571429 6.428571428571429 0 0 1 6.428571428571429 6.428571428571429v1.4657142857142857L31.64142857142857 32.16A3.0857142857142854 3.0857142857142854 0 0 1 30 32.60142857142857a3.0857142857142854 3.0857142857142854 0 0 1 -1.6414285714285715 -0.4414285714285714L0 13.251428571428571V11.785714285714285Zm0 7.902857142857143v28.525714285714283a6.428571428571429 6.428571428571429 0 0 0 6.428571428571429 6.428571428571429h47.14285714285714a6.428571428571429 6.428571428571429 0 0 0 6.428571428571429 -6.428571428571429V19.68857142857143L34.59857142857143 36.62571428571428l-0.02142857142857143 0.017142857142857144A8.425714285714285 8.425714285714285 0 0 1 30 37.958571428571425c-1.6071428571428572 0 -3.227142857142857 -0.4371428571428571 -4.577142857142857 -1.3157142857142856l-0.02142857142857143 -0.017142857142857144L0 19.68857142857143Z" clip-rule="evenodd" stroke-width="4.285714285714286"></path></g></svg>